<?xml version="1.0" standalone="no"?><!DOCTYPE svg PUBLIC "-//W3C//DTD SVG 1.1//EN" "http://www.w3.org/Graphics/SVG/1.1/DTD/svg11.dtd"><svg t="1562903361945" class="icon" viewBox="0 0 1024 1024" version="1.1" xmlns="http://www.w3.org/2000/svg" p-id="5706" xmlns:xlink="http://www.w3.org/1999/xlink" width="64" height="64"><defs><style type="text/css"></style></defs><path d="M447.136 943.52c-3.36 0-6.752-0.544-10.112-1.664-139.04-46.4-234.784-169.536-244.224-310.752C192.256 628.864 192 626.528 192 624.128c0-158.208-53.792-217.12-54.336-217.696-8.992-9.536-11.424-23.808-5.856-35.68 5.568-11.872 17.92-19.392 30.72-18.56 9.952 0.608 98.592 6.72 144.48 37.312 22.112 14.72 40.384 42.048 54.08 68.672 47.552-138.944 24.64-356 24.352-358.56-1.376-12.608 4.8-24.8 15.744-31.168 10.944-6.336 24.608-5.664 34.848 1.76 8.768 6.368 186.336 136.128 267.776 268.768 4.096-31.232 5.024-72.512 1.568-112.064-1.152-13.088 5.824-25.568 17.6-31.424 11.744-5.888 25.952-3.968 35.68 4.832 5.984 5.344 145.696 134.368 138.72 408.608 0 125.6-68.448 242.912-178.624 305.376-12.288 6.976-27.776 5.056-38.016-4.8-10.176-9.856-12.704-25.216-6.176-37.792 10.656-20.48 16.032-41.664 16.032-62.976 1.792-70.208-83.648-146.784-151.552-194.464 6.176 54.88 7.456 125.568-18.528 163.84-5.024 7.36-12.896 12.32-21.728 13.664-8.96 1.184-17.824-1.152-24.768-6.688-0.352-0.288-34.848-27.872-66.496-45.6-15.392-8.64-20.928-28.128-12.288-43.52s28.128-20.896 43.552-12.288c13.28 7.392 26.688 16.128 38.432 24.256 4.608-42.752-3.104-108.672-12.448-151.84-2.656-12.256 2.08-24.928 12.128-32.416 10.016-7.52 23.52-8.448 34.528-2.4 25.088 13.792 243.136 137.856 243.168 284.48 49.792-52.768 78.752-123.296 78.752-197.632 3.328-131.84-30.944-226.08-63.328-285.056-3.936 48.64-16.032 98.912-47.008 119.648-8.352 5.568-18.848 6.944-28.416 3.584-9.504-3.328-16.864-10.976-19.904-20.576-28.736-91.328-148.544-200.672-220.64-260.032 4.16 102.432 0.48 286.944-69.088 388.544-6.944 10.08-19.168 15.232-31.104 13.568-12.096-1.824-22.144-10.368-25.824-22.048-10.816-34.304-35.52-88.96-56.544-102.944-11.2-7.456-29.856-13.376-49.696-17.76 16.16 38.56 31.68 96.48 33.888 178.976C255.904 605.344 256 606.72 256 608.128c0 121.216 82.752 233.504 201.248 273.056 16.768 5.6 25.824 23.712 20.224 40.48C472.992 935.072 460.512 943.52 447.136 943.52z" p-id="5707" fill="#d81e06"></path></svg>